<?xml version="1.0" encoding="UTF-8"?>
<svg width="412px" height="732px" viewBox="0 0 412 732" version="1.1" xmlns="http://www.w3.org/2000/svg" xmlns:xlink="http://www.w3.org/1999/xlink">
    <!-- Generator: Sketch 64 (93537) - https://sketch.com -->
    <title>Group</title>
    <desc>Created with Sketch.</desc>
    <g id="Page-1" stroke="none" stroke-width="1" fill="none" fill-rule="evenodd" opacity="0.326846168">
        <g id="Artboard-Copy-5" stroke="#D2DAFD">
            <g id="Group" transform="translate(-16.000000, 0.000000)">
                <polygon id="Triangle" transform="translate(36.000000, 100.000000) rotate(90.000000) translate(-36.000000, -100.000000) " points="36 83 55 117 17 117"></polygon>
                <polygon id="Triangle-Copy-4" transform="translate(81.500000, 179.500000) rotate(90.000000) translate(-81.500000, -179.500000) " points="81.5 170 92 189 71 189"></polygon>
                <polygon id="Triangle-Copy-5" transform="translate(227.500000, 21.500000) rotate(90.000000) translate(-227.500000, -21.500000) " points="227.5 2 249 41 206 41"></polygon>
                <polygon id="Triangle-Copy-7" transform="translate(413.000000, 289.000000) rotate(90.000000) translate(-413.000000, -289.000000) " points="413 258 447 320 379 320"></polygon>
                <polygon id="Triangle-Copy-8" transform="translate(193.500000, 233.500000) rotate(90.000000) translate(-193.500000, -233.500000) " points="193.5 214 215 253 172 253"></polygon>
                <polygon id="Triangle-Copy" transform="translate(53.000000, 42.500000) rotate(90.000000) translate(-53.000000, -42.500000) " points="53 35 61 50 45 50"></polygon>
                <polygon id="Triangle-Copy-11" transform="translate(193.000000, 505.000000) rotate(90.000000) translate(-193.000000, -505.000000) " points="193 488 212 522 174 522"></polygon>
                <polygon id="Triangle-Copy-10" transform="translate(353.500000, 442.500000) rotate(90.000000) translate(-353.500000, -442.500000) " points="353.5 423 375 462 332 462"></polygon>
                <polygon id="Triangle-Copy-9" transform="translate(209.500000, 486.000000) rotate(90.000000) translate(-209.500000, -486.000000) " points="209.5 478.5 217.5 493.5 201.5 493.5"></polygon>
                <polygon id="Triangle-Copy-14" transform="translate(366.000000, 657.000000) rotate(90.000000) translate(-366.000000, -657.000000) " points="366 632 394 682 338 682"></polygon>
                <polygon id="Triangle-Copy-12" transform="translate(403.500000, 585.500000) rotate(90.000000) translate(-403.500000, -585.500000) " points="403.5 571.5 418.5 599.5 388.5 599.5"></polygon>
                <polygon id="Triangle-Copy-16" transform="translate(100.000000, 564.500000) rotate(90.000000) translate(-100.000000, -564.500000) " points="100 539.5 128 589.5 72 589.5"></polygon>
                <polygon id="Triangle-Copy-15" transform="translate(58.000000, 449.000000) rotate(90.000000) translate(-58.000000, -449.000000) " points="58 435 73 463 43 463"></polygon>
                <polygon id="Triangle-Copy-3" transform="translate(406.000000, 97.000000) rotate(90.000000) translate(-406.000000, -97.000000) " points="406 80 425 114 387 114"></polygon>
                <polygon id="Triangle-Copy-2" transform="translate(353.000000, 179.500000) rotate(90.000000) translate(-353.000000, -179.500000) " points="353 172 361 187 345 187"></polygon>
                <polygon id="Triangle-Copy-6" transform="translate(425.000000, 51.500000) rotate(90.000000) translate(-425.000000, -51.500000) " points="425 44 433 59 417 59"></polygon>
                <polygon id="Triangle-Copy-13" transform="translate(37.000000, 724.500000) rotate(90.000000) translate(-37.000000, -724.500000) " points="37 688 77 761 -3 761"></polygon>
                <polygon id="Triangle-Copy-17" transform="translate(321.500000, 741.500000) rotate(90.000000) translate(-321.500000, -741.500000) " points="321.5 722 343 761 300 761"></polygon>
            </g>
        </g>
    </g>
</svg>